<svg width="28" height="28" viewBox="0 0 28 28" fill="none" xmlns="http://www.w3.org/2000/svg">
<path d="M24.0625 3.0625H3.9375C3.45352 3.0625 3.0625 3.45352 3.0625 3.9375V24.0625C3.0625 24.5465 3.45352 24.9375 3.9375 24.9375H24.0625C24.5465 24.9375 24.9375 24.5465 24.9375 24.0625V3.9375C24.9375 3.45352 24.5465 3.0625 24.0625 3.0625ZM14.0301 14.1668L8.78008 18.5691C8.63789 18.6895 8.42188 18.5883 8.42188 18.4023V16.6879C8.42188 16.625 8.45195 16.5621 8.50117 16.5211L11.5035 14L8.50117 11.4789C8.47604 11.4591 8.45581 11.4337 8.44206 11.4048C8.42831 11.3758 8.4214 11.3441 8.42188 11.3121V9.59766C8.42188 9.41172 8.63789 9.31055 8.78008 9.43086L14.0301 13.8305C14.1367 13.918 14.1367 14.0793 14.0301 14.1668ZM19.5781 18.4023C19.5781 18.5227 19.4852 18.6211 19.373 18.6211H14.3145C14.2023 18.6211 14.1094 18.5227 14.1094 18.4023V17.0898C14.1094 16.9695 14.2023 16.8711 14.3145 16.8711H19.373C19.4852 16.8711 19.5781 16.9695 19.5781 17.0898V18.4023Z" fill="#9D174D"/>
</svg>
